<?xml version="1.0" standalone="no"?>
<!DOCTYPE svg PUBLIC "-//W3C//DTD SVG 1.1//EN"
  "http://www.w3.org/Graphics/SVG/1.1/DTD/svg11.dtd">
<svg xmlns="http://www.w3.org/2000/svg" version="1.1" class="railroad-diagram" width="393" height="62" viewBox="0 0 393 62">
<defs><style type="text/css"><![CDATA[ svg.railroad-diagram {
  background-color: hsl(30,20%,95%);
}
svg.railroad-diagram path {
  stroke-width: 3;
  stroke: black;
  fill: none;
}
svg.railroad-diagram text {
  font: bold 14px monospace;
  text-anchor: middle;
  cursor: pointer;
}
svg.railroad-diagram text.label {
  text-anchor: start;
}
svg.railroad-diagram text.comment {
  font: italic 12px monospace;
}
svg.railroad-diagram rect {
  stroke-width: 3;
  stroke: black;
  fill: hsl(120,100%,90%);
}
 ]]></style></defs>
<g transform="translate(.5 .5)">
<path d="M 20 21 v 20 m 10 -20 v 20 m -10 -10 h 20.5"></path>
<g>
<path d="M40 31h0"></path>
<path d="M352 31h0"></path>
<path d="M40 31h10"></path>
<g>
<path d="M50 31h0"></path>
<path d="M94 31h0"></path>
<rect x="50" y="20" width="44" height="22" rx="10" ry="10"></rect>
<text x="72" y="35">#ob</text>
</g>
<path d="M94 31h10"></path>
<path d="M104 31h10"></path>
<g>
<path d="M114 31h0"></path>
<path d="M142 31h0"></path>
<rect x="114" y="20" width="28" height="22" rx="10" ry="10"></rect>
<text x="128" y="35">(</text>
</g>
<path d="M142 31h10"></path>
<path d="M152 31h10"></path>
<g>
<path d="M162 31h0"></path>
<path d="M222 31h0"></path>
<rect x="162" y="20" width="60" height="22"></rect>
<text x="192" y="35">coord</text>
</g>
<path d="M222 31h10"></path>
<path d="M232 31h10"></path>
<g>
<path d="M242 31h0"></path>
<path d="M278 31h0"></path>
<rect x="242" y="20" width="36" height="22" rx="10" ry="10"></rect>
<text x="260" y="35">);</text>
</g>
<path d="M278 31h10"></path>
<path d="M288 31h10"></path>
<g>
<path d="M298 31h0"></path>
<path d="M342 31h0"></path>
<rect x="298" y="20" width="44" height="22"></rect>
<text x="320" y="35">n&#95;&#95;</text>
</g>
<path d="M342 31h10"></path>
</g>
<path d="M 352 31 h 20 m -10 -10 v 20 m 10 -20 v 20"></path>
</g>
</svg>
