<?xml version="1.0" standalone="no"?>
<!DOCTYPE svg PUBLIC "-//W3C//DTD SVG 1.1//EN"
  "http://www.w3.org/Graphics/SVG/1.1/DTD/svg11.dtd">
<svg xmlns="http://www.w3.org/2000/svg" version="1.1" class="railroad-diagram" width="329" height="81" viewBox="0 0 329 81">
<defs><style type="text/css"><![CDATA[ svg.railroad-diagram {
  background-color: hsl(30,20%,95%);
}
svg.railroad-diagram path {
  stroke-width: 3;
  stroke: black;
  fill: none;
}
svg.railroad-diagram text {
  font: bold 14px monospace;
  text-anchor: middle;
  cursor: pointer;
}
svg.railroad-diagram text.label {
  text-anchor: start;
}
svg.railroad-diagram text.comment {
  font: italic 12px monospace;
}
svg.railroad-diagram rect {
  stroke-width: 3;
  stroke: black;
  fill: hsl(120,100%,90%);
}
 ]]></style></defs>
<g transform="translate(.5 .5)">
<path d="M 20 31 v 20 m 10 -20 v 20 m -10 -10 h 20.5"></path>
<g>
<path d="M40 41h0"></path>
<path d="M288 41h0"></path>
<path d="M40 41h10"></path>
<g>
<path d="M50 41h0"></path>
<path d="M134 41h0"></path>
<rect x="50" y="30" width="84" height="22"></rect>
<text x="92" y="45">Obstacle</text>
</g>
<path d="M134 41h10"></path>
<g>
<path d="M144 41h0"></path>
<path d="M288 41h0"></path>
<path d="M144 41a10 10 0 0 0 10 -10v0a10 10 0 0 1 10 -10"></path>
<g>
<path d="M164 21h104"></path>
</g>
<path d="M268 21a10 10 0 0 1 10 10v0a10 10 0 0 0 10 10"></path>
<path d="M144 41h20"></path>
<g>
<path d="M164 41h0"></path>
<path d="M268 41h0"></path>
<path d="M164 41h10"></path>
<g>
<path d="M174 41h0"></path>
<path d="M258 41h0"></path>
<rect x="174" y="30" width="84" height="22"></rect>
<text x="216" y="45">Obstacle</text>
</g>
<path d="M258 41h10"></path>
<path d="M174 41a10 10 0 0 0 -10 10v0a10 10 0 0 0 10 10"></path>
<g>
<path d="M174 61h84"></path>
</g>
<path d="M258 61a10 10 0 0 0 10 -10v0a10 10 0 0 0 -10 -10"></path>
</g>
<path d="M268 41h20"></path>
</g>
</g>
<path d="M 288 41 h 20 m -10 -10 v 20 m 10 -20 v 20"></path>
</g>
</svg>
